<svg width="430" height="154" viewBox="0 0 430 154" fill="none" xmlns="http://www.w3.org/2000/svg">
<path d="M236.152 95.8986C280.15 71.5129 304.819 60.7124 348.818 38.1667C348.818 38.1667 282.986 41.4148 238.504 59.9303C193.79 78.5419 170.145 74.7206 125.201 72.1021L124.308 72.0502C86.5626 69.8517 64.6761 68.577 28.6068 55.9075C14.6065 50.9898 7.14374 46.8293 -6.58069 40.9174C-32.7294 29.6536 -85.5945 -30.7698 -73.378 11.537C-67.2594 32.7264 -67.3442 33.3506 -42.0026 49.264C-16.6609 65.1774 -7.35622 72.7146 22.8887 90.0128C57.1693 109.619 91.998 114.5 117.788 116.313C143.579 118.125 192.154 120.284 236.152 95.8986Z" fill="#DDF4FC"/>
<path d="M430.779 100.835C437.024 92.6716 434.812 96.8244 434.812 89.1437V-21.4981L0 -23V82.1347C0 82.1347 24.3466 87.2206 39.9557 89.1437C71.1418 92.9861 88.3567 96.6265 119.867 96.6533C151.605 96.6804 169.266 92.5328 200.366 87.1412C234.188 81.2776 251.079 68.3079 285.566 67.1155C304.104 66.4745 314.404 65.927 332.573 68.6174C332.573 68.6174 372.621 72.7576 391.331 86.6405C405.235 96.9574 424.534 108.999 430.779 100.835Z" fill="#70CCF3"/>
</svg>
