<svg width="23" height="25" viewBox="0 0 23 25" fill="none" xmlns="http://www.w3.org/2000/svg">
<path d="M21.7679 23.4375H20.7812V1.17188C20.7812 0.524658 20.2511 0 19.5971 0H3.02057C2.36664 0 1.83653 0.524658 1.83653 1.17188V23.4375H0.849832C0.522889 23.4375 0.257812 23.6999 0.257812 24.0234V25H22.3599V24.0234C22.3599 23.6999 22.0948 23.4375 21.7679 23.4375ZM6.57269 3.71094C6.57269 3.38735 6.83777 3.125 7.16471 3.125H9.13811C9.46505 3.125 9.73013 3.38735 9.73013 3.71094V5.66406C9.73013 5.98765 9.46505 6.25 9.13811 6.25H7.16471C6.83777 6.25 6.57269 5.98765 6.57269 5.66406V3.71094ZM6.57269 8.39844C6.57269 8.07485 6.83777 7.8125 7.16471 7.8125H9.13811C9.46505 7.8125 9.73013 8.07485 9.73013 8.39844V10.3516C9.73013 10.6751 9.46505 10.9375 9.13811 10.9375H7.16471C6.83777 10.9375 6.57269 10.6751 6.57269 10.3516V8.39844ZM9.13811 15.625H7.16471C6.83777 15.625 6.57269 15.3626 6.57269 15.0391V13.0859C6.57269 12.7624 6.83777 12.5 7.16471 12.5H9.13811C9.46505 12.5 9.73013 12.7624 9.73013 13.0859V15.0391C9.73013 15.3626 9.46505 15.625 9.13811 15.625ZM12.8876 23.4375H9.73013V19.3359C9.73013 19.0124 9.99521 18.75 10.3222 18.75H12.2956C12.6225 18.75 12.8876 19.0124 12.8876 19.3359V23.4375ZM16.045 15.0391C16.045 15.3626 15.7799 15.625 15.453 15.625H13.4796C13.1526 15.625 12.8876 15.3626 12.8876 15.0391V13.0859C12.8876 12.7624 13.1526 12.5 13.4796 12.5H15.453C15.7799 12.5 16.045 12.7624 16.045 13.0859V15.0391ZM16.045 10.3516C16.045 10.6751 15.7799 10.9375 15.453 10.9375H13.4796C13.1526 10.9375 12.8876 10.6751 12.8876 10.3516V8.39844C12.8876 8.07485 13.1526 7.8125 13.4796 7.8125H15.453C15.7799 7.8125 16.045 8.07485 16.045 8.39844V10.3516ZM16.045 5.66406C16.045 5.98765 15.7799 6.25 15.453 6.25H13.4796C13.1526 6.25 12.8876 5.98765 12.8876 5.66406V3.71094C12.8876 3.38735 13.1526 3.125 13.4796 3.125H15.453C15.7799 3.125 16.045 3.38735 16.045 3.71094V5.66406Z" fill="#949494"/>
</svg>
