<svg width="430" height="182" viewBox="0 0 430 182" fill="none" xmlns="http://www.w3.org/2000/svg">
<path d="M236.154 123.899L348.82 66.1667C348.82 66.1667 282.988 69.4148 238.506 87.9303C193.792 106.542 170.147 102.721 125.203 100.102L124.31 100.05C86.5646 97.8517 64.6781 96.577 28.6087 83.9075C14.6084 78.9898 7.14569 74.8293 -6.57874 68.9174C-32.7275 57.6536 -85.5926 -2.76979 -73.3761 39.537C-67.2574 60.7264 -67.3423 61.3506 -42.0006 77.264C-16.659 93.1774 -8.64963 103.208 22.8907 118.013C58.2553 134.613 79.4262 141.764 117.79 144.313C163.413 147.344 192.155 146.444 236.154 123.899Z" fill="#DDF4FC"/>
<path d="M415.555 122.824C426.45 121.318 428.323 118.331 429.484 111.84C430.645 105.349 429.484 1.49786 429.484 1.49786L0 0V104.85C0 104.85 24.0482 109.922 39.4661 111.84C70.27 115.672 87.274 119.303 118.398 119.329C149.747 119.356 167.192 115.22 197.911 109.843C231.319 103.995 248.002 91.0608 282.067 89.8715C300.378 89.2323 302.615 87.8689 328.497 91.3694C354.38 94.8699 366.655 97.6415 386.536 109.344C397.563 115.834 404.66 124.33 415.555 122.824Z" fill="#70CCF3"/>
</svg>
