<svg width="430" height="238" viewBox="0 0 430 238" fill="none" xmlns="http://www.w3.org/2000/svg">
<path d="M448.855 154.447C436.533 143.516 413.978 132.563 377.342 133.505C310.931 135.213 269.372 172.48 206.72 181.797C160.914 188.608 46.8357 187.715 -2.60709 146.946C-3.50674 146.204 -3.99908 145.101 -3.99744 143.935L-3.95117 110.802L-3.99829 2.00173C-3.99924 -0.208082 -2.2081 -2 0.00170898 -2L434.079 -2C436.288 -2 438.079 -0.209139 438.079 2V111.177L456.674 111.193C458.912 111.195 460.714 113.033 460.669 115.272L459.972 150.596C459.888 154.848 452.036 157.269 448.855 154.447Z" fill="url(#paint0_linear_301_2075)" fill-opacity="0.5"/>
<path d="M68.961 237.942C17.0107 239.345 -7.429 214.811 -13.5077 201.803C-13.6944 201.404 -13.7946 200.985 -13.8304 200.545L-18.3746 144.759C-18.6376 141.53 -15.1558 139.333 -12.3529 140.958C-5.27029 145.066 5.88767 151.465 13.0481 155.224C34.2968 166.376 48.6566 166.786 72.0617 171.669C96.9129 176.854 111.084 179.789 136.44 180.44C162.931 181.121 178.338 181.009 204.038 174.41C217.356 170.991 237.082 162.884 238.315 162.375C238.356 162.358 238.396 162.342 238.438 162.327L295.174 140.996L295.198 140.987C295.223 140.977 295.236 140.973 295.271 140.958C296.667 140.379 346.563 119.8 379.469 123.429C399.241 125.61 393.623 121.881 428.29 138.23C435.264 141.519 433.118 145.356 441.702 147.001C444.207 147.481 447.603 150.54 447.603 153.09V216.148C447.603 219.616 443.426 221.536 440.635 219.477C389.005 181.391 282.209 180.775 238.375 187.616C176.167 197.325 134.902 236.162 68.961 237.942Z" fill="url(#paint1_linear_301_2075)"/>
<defs>
<linearGradient id="paint0_linear_301_2075" x1="249.5" y1="-2" x2="249.5" y2="185" gradientUnits="userSpaceOnUse">
<stop stop-color="#6DCEEF"/>
<stop offset="0.19" stop-color="#6DCEEF"/>
<stop offset="0.3" stop-color="#6DCEEF"/>
<stop offset="0.9999" stop-color="#6DCEEF"/>
<stop offset="1" stop-color="white"/>
</linearGradient>
<linearGradient id="paint1_linear_301_2075" x1="214.5" y1="123" x2="214.5" y2="238" gradientUnits="userSpaceOnUse">
<stop stop-color="#6DCEEF"/>
<stop offset="1" stop-color="white"/>
</linearGradient>
</defs>
</svg>
