<svg width="430" height="107" viewBox="0 0 430 107" fill="none" xmlns="http://www.w3.org/2000/svg">
<path d="M74.6636 86.3462C41.2319 87.2168 20.3602 77.757 8.69861 68.0834C5.44488 65.3844 -2.36945 67.9006 -2.45064 72.1272L-3.03534 102.564C-3.07836 104.804 -1.27455 106.642 0.965123 106.642L426.348 106.543C428.556 106.542 430.346 104.753 430.346 102.545L430.354 76.727C430.355 75.5409 429.845 74.4213 428.917 73.6828C382.683 36.8995 276.443 36.21 233.766 42.421C175.335 50.9246 136.608 84.733 74.6636 86.3462Z" fill="#96C063"/>
<path d="M350.806 0.047629C400.275 -1.10536 423.683 18.9559 429.652 29.7472C429.893 30.1845 430.024 30.6607 430.071 31.1581L434.318 76.1719C434.614 79.3093 431.338 81.5503 428.52 80.1396C421.735 76.7432 411.139 71.4972 404.324 68.4092C383.986 59.1922 370.241 58.8534 347.838 54.8179C324.051 50.5331 310.487 48.1079 286.217 47.5693C260.861 47.0066 246.113 47.0992 221.514 52.5527C208.755 55.3814 189.85 62.091 188.702 62.5C188.665 62.5133 188.628 62.5257 188.591 62.5379L134.278 80.1685L134.255 80.1759C134.233 80.183 134.222 80.1864 134.191 80.1975C132.917 80.654 85.1147 97.6869 53.5959 94.6855C34.6704 92.8833 40.0486 95.9648 6.86627 82.4534C0.190613 79.7352 2.24466 76.5639 -5.97153 75.2048C-8.49039 74.7881 -11.6202 71.9181 -11.6202 69.365V18.8106C-11.6202 15.4786 -7.74646 13.5278 -4.9357 15.3173C44.4887 46.7834 146.695 47.2924 188.647 41.6391C248.191 33.615 287.689 1.51871 350.806 0.047629Z" fill="#BEE292"/>
</svg>
