<svg width="430" height="107" viewBox="0 0 430 107" fill="none" xmlns="http://www.w3.org/2000/svg">
<path d="M74.6636 89.0354C41.3557 89.9298 20.5149 80.2508 8.82855 70.3147C5.5875 67.5591 -2.37056 70.0747 -2.4498 74.3282L-3.03776 105.888C-3.07946 108.127 -1.27616 109.963 0.962513 109.963L426.347 109.861C428.555 109.861 430.346 108.071 430.346 105.863L430.354 79.0215C430.355 77.8566 429.862 76.7545 428.962 76.015C382.752 38.0492 276.457 37.3356 233.766 43.7422C175.335 52.5106 136.608 87.3721 74.6636 89.0354Z" fill="#96C063"/>
<path d="M350.806 0.0491124C400.325 -1.14099 423.73 19.588 429.67 30.7073C429.899 31.1369 430.023 31.6009 430.067 32.0859L434.331 78.6841C434.619 81.8397 431.302 84.0716 428.486 82.6182C421.7 79.1156 411.127 73.7187 404.324 70.5398C383.986 61.0357 370.241 60.6864 347.838 56.5252C324.051 52.107 310.487 49.6062 286.217 49.0508C260.861 48.4706 246.113 48.5661 221.514 54.1895C208.763 57.1045 189.873 64.0164 188.704 64.4458C188.666 64.4598 188.628 64.4732 188.589 64.4861L134.279 82.6649L134.256 82.6726C134.233 82.6802 134.222 82.6839 134.19 82.6957C132.89 83.1759 85.1057 100.729 53.5959 97.6345C34.6704 95.7762 40.0486 98.9537 6.86627 85.0214C0.190613 82.2185 2.24466 78.9485 -5.97153 77.547C-8.46545 77.1216 -11.6202 74.2402 -11.6202 71.7103V19.2989C-11.6202 15.9391 -7.68442 13.9929 -4.87433 15.8346C44.5733 48.2409 146.712 48.7629 188.647 42.9359C248.191 34.6619 287.689 1.56601 350.806 0.0491124Z" fill="#BEE292"/>
</svg>
