<svg width="421" height="198" viewBox="0 0 421 198" fill="none" xmlns="http://www.w3.org/2000/svg">
<path d="M233.653 131.388C277.719 103.096 302.426 90.5653 346.492 64.4077C346.492 64.4077 280.559 68.1762 236.008 89.6579C191.225 111.251 167.543 106.818 122.53 103.78L121.636 103.719C83.8326 101.169 61.9123 99.6898 25.7874 84.9906C11.7655 79.2851 4.29128 74.458 -9.4543 67.599C-35.6434 54.5307 -88.59 -15.5727 -76.3546 33.5118C-70.2265 58.0958 -70.3115 58.82 -44.9308 77.2828C-19.5501 95.7455 -10.231 104.49 20.0606 124.56C54.394 147.307 89.2764 152.97 115.107 155.073C140.937 157.176 189.586 159.681 233.653 131.388Z" fill="#DDF4FC"/>
<path d="M428.578 137.116C434.833 127.644 432.618 132.463 432.618 123.551V-4.81563L-2.8642 -6.55817V115.42C-2.8642 115.42 21.5199 121.32 37.1531 123.551C68.3872 128.009 85.6287 132.233 117.188 132.264C148.974 132.295 166.662 127.483 197.811 121.228C231.685 114.425 248.602 99.3777 283.142 97.9942C301.709 97.2505 312.024 96.6153 330.221 99.7367C330.221 99.7367 370.331 104.54 389.07 120.647C402.996 132.617 422.324 146.587 428.578 137.116Z" fill="#70CCF3"/>
</svg>
