<svg width="26" height="25" viewBox="0 0 26 25" fill="none" xmlns="http://www.w3.org/2000/svg">
<path d="M18.8541 0H6.28471C2.81555 0 0 2.78889 0 6.22811V13.7069V14.9575C0 18.3967 2.81555 21.1856 6.28471 21.1856H8.17012C8.50949 21.1856 8.96199 21.4107 9.17567 21.6858L11.0611 24.1746C11.8907 25.2751 13.2482 25.2751 14.0777 24.1746L15.9632 21.6858C16.202 21.3732 16.5791 21.1856 16.9687 21.1856H18.8541C22.3233 21.1856 25.1388 18.3967 25.1388 14.9575V6.22811C25.1388 2.78889 22.3233 0 18.8541 0ZM7.54165 12.5063C6.83776 12.5063 6.28471 11.9435 6.28471 11.2556C6.28471 10.5678 6.85033 10.005 7.54165 10.005C8.23296 10.005 8.79859 10.5678 8.79859 11.2556C8.79859 11.9435 8.24553 12.5063 7.54165 12.5063ZM12.5694 12.5063C11.8655 12.5063 11.3125 11.9435 11.3125 11.2556C11.3125 10.5678 11.8781 10.005 12.5694 10.005C13.2607 10.005 13.8264 10.5678 13.8264 11.2556C13.8264 11.9435 13.2733 12.5063 12.5694 12.5063ZM17.5972 12.5063C16.8933 12.5063 16.3402 11.9435 16.3402 11.2556C16.3402 10.5678 16.9059 10.005 17.5972 10.005C18.2885 10.005 18.8541 10.5678 18.8541 11.2556C18.8541 11.9435 18.3011 12.5063 17.5972 12.5063Z" fill="#949494"/>
</svg>
