<svg width="430" height="204" viewBox="0 0 430 204" fill="none" xmlns="http://www.w3.org/2000/svg">
<path d="M402.742 167.309C413.659 170.146 430 177.783 430 177.783V117.556L402.742 110.574L328.858 100.099L268.603 135.886L210.5 142.869H143.072L95.7288 135.886L39.0605 107.082L-9 39V154.216C-9 154.216 18.8356 178.631 39.0605 188.257C60.1421 198.291 72.4792 200.507 95.7288 203.096C114.005 205.13 143.072 203.096 143.072 203.096C143.072 203.096 184.492 202.896 210.5 199.604C233.646 196.675 246.06 193.689 268.603 188.257C292.331 182.54 304.923 175.051 328.858 170.8C357.43 165.726 374.503 159.971 402.742 167.309Z" fill="#DDF4FC"/>
<path d="M343.175 127.675C378.207 130.06 430 144.133 430 144.133V0H-23.2561C-23.2561 0 -51.9299 66.262 -23.2561 100.245C0.657276 128.586 31.0484 138.936 76.8134 149.121C114.569 157.523 138.656 154.814 178.355 153.609C244.366 151.606 277.428 123.2 343.175 127.675Z" fill="#70CCF3"/>
</svg>
