<svg width="114" height="91" viewBox="0 0 114 91" fill="none" xmlns="http://www.w3.org/2000/svg">
<path d="M99.7108 5.3828e-05C95.0104 12.865 88.5606 18.6317 83.8602 31.4966C79.1598 44.3615 52.749 61.0759 42.7717 69.8069C34.3818 77.1488 29.2512 74.9839 18.7634 79.2647C9.40978 83.0826 19.2298 78.6004 10.938 80.9667C10.0037 81.2334 9.30624 81.4721 8.79645 81.6823C10.8859 83.2275 5.21851 83.1575 8.79645 81.6823C8.54162 81.4938 8.1714 81.2813 7.65496 81.0444C-3.03536 76.1408 19.5235 75.9558 27.0829 72.6142C31.0505 70.8603 33.3907 70.0717 37.223 68.0883C47.1738 62.9383 47.6962 63.2454 56.0104 55.8622C65.7682 47.1971 70.3413 48.946 75.9491 36.6227C81.5279 24.3629 99.7108 5.3828e-05 99.7108 5.3828e-05Z" fill="#DDF4FC"/>
<path d="M103.385 25.2169C96.994 35.2403 90.434 39.1683 84.0426 49.1917C77.6513 59.2152 52.0717 69.5956 41.959 75.5149C33.4553 80.4924 29.4924 78.0351 19.7728 80.209C11.1042 82.1479 20.2931 79.7205 12.798 80.5976C11.9534 80.6965 11.3156 80.803 10.8427 80.9105C12.3333 82.4598 7.52409 81.6644 10.8427 80.9105C10.6609 80.7215 10.3854 80.4977 9.99005 80.2346C1.80571 74.7896 21.0347 77.5725 28.088 75.7938C31.79 74.8603 33.9278 74.5129 37.5574 73.372C46.9817 70.4096 47.369 70.7315 55.816 65.7099C65.7296 59.8165 69.2956 61.8575 76.3583 52.3998C83.3845 42.9909 103.385 25.2169 103.385 25.2169Z" fill="#DDF4FC"/>
<path d="M68.0375 8.22769C66.6411 19.232 62.4717 24.419 61.0753 35.4234C59.6788 46.4277 41.298 61.9136 34.8124 69.7793C29.3586 76.3935 24.762 74.8884 17.0163 79.0726C10.1082 82.8044 17.2709 78.4913 10.954 80.9503C10.2422 81.2273 9.71836 81.4673 9.34226 81.6724C11.34 82.8388 6.70258 83.1123 9.34226 81.6724C9.09861 81.5302 8.75626 81.3746 8.28997 81.2073C-1.36212 77.7436 17.0092 76.2685 22.5436 73.0391C25.4485 71.3441 27.2084 70.5494 29.9593 68.6709C37.1022 63.7932 37.5866 64.0188 42.9708 57.3745C49.2898 49.5766 53.3527 50.7674 55.5921 40.1616C57.82 29.6105 68.0375 8.22769 68.0375 8.22769Z" fill="#DDF4FC"/>
</svg>
